<?xml version="1.0" encoding="utf-8"?>
<!-- Generator: Adobe Illustrator 23.0.6, SVG Export Plug-In . SVG Version: 6.00 Build 0)  -->
<svg version="1.1" id="Layer_1" xmlns="http://www.w3.org/2000/svg" xmlns:xlink="http://www.w3.org/1999/xlink" x="0px" y="0px"
	 viewBox="0 0 84.36 84.36" style="enable-background:new 0 0 84.36 84.36;" xml:space="preserve">
<style type="text/css">
	.st0{fill:#08090A;}
	.st1{fill:none;}
</style>
<g>
	<g>
		<path class="st0" d="M12.72,23.31l0.71-0.89l1.66,1.46l0.2-2.16l1.08,0.14l-0.45,2.17l2.01-0.93l0.39,1.02l-2.04,0.7l1.78,1.28
			l-0.7,0.89l-1.65-1.45l-0.21,2.17l-1.09-0.17l0.45-2.15l-2.02,0.91l-0.39-1.02l2.05-0.69L12.72,23.31z"/>
		<path class="st0" d="M35.48,19.03l-0.41-9.31l1.3-0.41l0.24,10.92l-1.39,0.44l-4.93-7.38l0.18,8.88l-1.4,0.44L23,13.53l1.36-0.43
			l4.96,7.88l-0.27-9.36l1.31-0.41L35.48,19.03z"/>
		<path class="st0" d="M48.17,11.81l-5.24-0.74l-0.49,3.49l4.94,0.7l-0.16,1.11l-4.94-0.7l-0.5,3.51l5.38,0.76l-0.16,1.14
			l-6.62-0.94l1.47-10.38l6.49,0.92L48.17,11.81z"/>
		<path class="st0" d="M52.92,12.24l1.13,0.55l-4.12,8.38l4.29,2.11l-0.51,1.03l-5.42-2.67L52.92,12.24z"/>
		<path class="st0" d="M62.3,27.99c-0.4,0.34-0.82,0.6-1.24,0.78c-0.43,0.18-0.86,0.26-1.3,0.25c-0.44-0.01-0.89-0.13-1.35-0.35
			c-0.46-0.22-0.92-0.56-1.38-1.03c-0.57-0.58-0.93-1.16-1.1-1.75c-0.17-0.59-0.19-1.18-0.06-1.77c0.13-0.58,0.37-1.15,0.74-1.71
			c0.37-0.55,0.81-1.08,1.32-1.58c0.5-0.49,1.02-0.91,1.57-1.28c0.55-0.36,1.11-0.61,1.69-0.73c0.58-0.12,1.17-0.1,1.76,0.08
			c0.6,0.18,1.19,0.56,1.78,1.16c0.45,0.46,0.79,0.92,1,1.37c0.21,0.45,0.32,0.9,0.33,1.34c0.01,0.44-0.07,0.86-0.24,1.27
			c-0.17,0.41-0.42,0.8-0.73,1.17l-0.91-0.93c0.18-0.22,0.32-0.46,0.42-0.73c0.1-0.26,0.15-0.54,0.14-0.83
			c-0.01-0.29-0.08-0.58-0.2-0.87c-0.13-0.29-0.33-0.58-0.6-0.86l-0.14-0.14c-0.4-0.41-0.82-0.67-1.24-0.77
			c-0.42-0.1-0.84-0.1-1.27,0.02c-0.43,0.12-0.85,0.32-1.27,0.61c-0.42,0.29-0.82,0.62-1.21,1.01c-0.37,0.36-0.7,0.75-1.01,1.15
			c-0.31,0.41-0.53,0.83-0.66,1.26c-0.14,0.43-0.16,0.86-0.07,1.3c0.09,0.44,0.34,0.87,0.76,1.29l0.13,0.13
			c0.3,0.31,0.62,0.53,0.94,0.66c0.32,0.13,0.63,0.19,0.94,0.19c0.31-0.01,0.59-0.07,0.86-0.19c0.26-0.12,0.49-0.27,0.69-0.47
			L62.3,27.99z"/>
		<path class="st0" d="M71.8,30.67c0.33,0.78,0.47,1.48,0.4,2.11c-0.06,0.62-0.26,1.18-0.6,1.67c-0.33,0.49-0.77,0.92-1.32,1.28
			c-0.54,0.37-1.14,0.69-1.78,0.96c-0.66,0.28-1.31,0.49-1.97,0.62c-0.65,0.13-1.27,0.14-1.86,0.04c-0.59-0.11-1.13-0.35-1.61-0.74
			c-0.49-0.38-0.89-0.95-1.21-1.7c-0.32-0.74-0.44-1.42-0.38-2.03c0.06-0.61,0.26-1.17,0.59-1.67c0.33-0.5,0.77-0.94,1.31-1.32
			c0.54-0.38,1.15-0.71,1.81-0.99c0.64-0.27,1.28-0.48,1.93-0.62s1.26-0.16,1.84-0.06c0.58,0.1,1.12,0.34,1.61,0.72
			C71.07,29.32,71.48,29.9,71.8,30.67z M63.01,34.51c0.24,0.56,0.54,0.96,0.91,1.21c0.37,0.25,0.78,0.4,1.23,0.44
			s0.92-0.01,1.42-0.13c0.49-0.13,0.98-0.29,1.45-0.49c0.5-0.21,0.96-0.46,1.39-0.73c0.43-0.27,0.77-0.59,1.05-0.94
			c0.27-0.35,0.44-0.74,0.5-1.18c0.06-0.43-0.02-0.91-0.24-1.44l-0.08-0.18c-0.23-0.53-0.52-0.92-0.87-1.17
			c-0.35-0.25-0.75-0.4-1.19-0.44c-0.44-0.05-0.91-0.01-1.4,0.1c-0.49,0.12-0.99,0.28-1.49,0.5c-0.47,0.2-0.93,0.44-1.36,0.7
			c-0.44,0.27-0.79,0.58-1.08,0.93c-0.28,0.35-0.46,0.75-0.54,1.18c-0.08,0.44,0,0.93,0.24,1.48L63.01,34.51z"/>
		<path class="st0" d="M65.73,44.9l8.56,3.53l-0.04,1.65L63.77,49.8l0.03-1.23l8.68,0.24l-8.59-3.52l0.02-0.88l8.77-3.04l-8.68-0.24
			l0.03-1.23l10.48,0.29l-0.04,1.65L65.73,44.9z"/>
		<path class="st0" d="M68.7,61.38l2.22-4.81l-3.2-1.48l-2.1,4.53l-1.02-0.47l2.1-4.53l-3.21-1.49l-2.28,4.93l-1.04-0.48l2.81-6.07
			l9.52,4.4l-2.75,5.95L68.7,61.38z"/>
		<path class="st0" d="M58.17,59.77l0.89-1.11l1.15,0.93l-0.89,1.11L58.17,59.77z M61.4,60.88l3.74,2.71l2.07,1.68l-0.88,1.08
			l-2.07-1.67l-3.44-3.09L61.4,60.88z"/>
	</g>
	<path class="st1" d="M33.17,40.95l-21.36-2.61c-0.24,1.02-0.43,2.07-0.56,3.14C9.32,57.28,20.6,71.71,36.4,73.63
		c6.94,0.85,13.61-0.86,19.07-4.37L43.89,58.3L33.17,40.95z"/>
	<path class="st0" d="M56.36,70.11l-0.89-0.84c-5.46,3.51-12.14,5.21-19.07,4.37C20.6,71.71,9.32,57.28,11.24,41.48
		c0.13-1.07,0.32-2.12,0.56-3.14l-1.2-0.15c-0.24,1.03-0.42,2.07-0.55,3.14c-2.01,16.45,9.75,31.47,26.2,33.48
		C43.59,75.71,50.63,73.87,56.36,70.11z"/>
</g>
</svg>
